#!OML:ASF H:\Terrain\Patient Classification 1\Terrain2\Thursday\justin.ASF
:FULLY-SPECIFIED
:DEGREES
2473
root 20.1753 24.0627 20.1381 724.985 -66.9696 357.714
lowerback 4.78629 1.26854 -0.546162
upperback 1.6817 1.66379 2.07315
thorax -1.03172 0.815528 2.34222
lowerneck -12.468 -2.65491 -9.7219
upperneck 39.5121 -4.70829 5.46182
head 16.7541 -3.09277 3.24077
rclavicle 6.83819e-014 -1.55052e-014
rhumerus -31.6326 -2.59551 -82.2973
rradius 42.3602
rwrist -16.1232
rhand -22.5759 9.22231
rfingers 7.12502
rthumb 3.85262 -20.7226
lclavicle 6.83819e-014 -1.55052e-014
lhumerus -37.2777 6.00518 82.3777
lradius 24.8209
lwrist -1.64208
lhand -20.1724 18.6451
lfingers 7.12502
lthumb 6.17333 48.5352
rfemur -22.8025 -17.8341 27.021
rtibia 41.9215
rfoot -25.2472 -7.0579
rtoes 1.36813
lfemur -6.1023 4.74175 -19.0522
ltibia 26.1432
lfoot -18.2995 10.0709
ltoes -6.30105
2474
root 20.1524 24.0609 20.1453 725.891 -67.9191 357.009
lowerback 4.56112 1.21406 -0.595359
upperback 1.61268 1.59058 2.16696
thorax -0.977595 0.77908 2.47451
lowerneck -12.5746 -2.63381 -9.93205
upperneck 39.6001 -4.76022 5.76574
head 16.8528 -3.11684 3.40783
rclavicle -5.28767e-014 1.35174e-014
rhumerus -31.8209 -2.45121 -82.2619
rradius 42.6378
rwrist -16.3228
rhand -21.9751 9.36132
rfingers 7.12502
rthumb 4.43279 -20.5723
lclavicle -5.28767e-014 1.35174e-014
lhumerus -37.2835 6.19976 82.1962
lradius 24.6849
lwrist -1.99589
lhand -20.5349 18.3941
lfingers 7.12502
lthumb 5.82339 48.2941
rfemur -23.1877 -18.1541 27.618
rtibia 41.8355
rfoot -25.1839 -7.39265
rtoes 1.95938
lfemur -5.98803 4.82512 -18.8817
ltibia 25.7908
lfoot -18.235 10.6239
ltoes -5.07061
2475
root 20.1286 24.0885 20.1501 726.392 -68.7592 356.666
lowerback 4.46619 1.30246 -0.559454
upperback 1.51287 1.7118 2.06605
thorax -1.0288 0.841786 2.3444
lowerneck -12.4523 -2.70518 -9.705
upperneck 39.5809 -5.02615 5.88043
head 16.8373 -3.18611 3.36973
rclavicle 1.28713e-014 -3.97569e-016
rhumerus -31.8939 -3.51645 -82.1141
rradius 42.4718
rwrist -15.5199
rhand -21.3483 10.1483
rfingers 7.12502
rthumb 5.03807 -19.7718
lclavicle 1.28713e-014 -3.97569e-016
lhumerus -37.1797 5.5699 82.1887
lradius 24.5521
lwrist -2.1437
lhand -20.6918 18.3014
lfingers 7.12502
lthumb 5.67196 48.2055
rfemur -23.4916 -18.3356 27.9312
rtibia 41.6568
rfoot -25.1185 -7.52566
rtoes 2.27027
lfemur -5.85823 5.06954 -18.846
ltibia 25.5391
lfoot -18.1502 11.026
ltoes -4.11047
2476
root 20.1091 24.0915 20.162 726.172 -69.5174 356.916
lowerback 4.56111 1.29818 -0.706006
upperback 1.45742 1.701 1.99672
thorax -1.14036 0.838057 2.35315
lowerneck -12.4107 -2.74713 -9.6189
upperneck 39.5947 -5.12441 5.82326
head 16.8405 -3.22927 3.30897
rclavicle 1.0471e-013 -2.38542e-015
rhumerus -32.1589 -3.42415 -82.1777
rradius 42.847
rwrist -15.784
rhand -21.7404 9.85319
rfingers 7.12502
rthumb 4.65949 -20.0756
lclavicle 1.0471e-013 -2.38542e-015
lhumerus -37.1529 5.06871 82.3361
lradius 24.4871
lwrist -1.9636
lhand -20.6294 18.4336
lfingers 7.12502
lthumb 5.73215 48.3361
rfemur -23.5811 -18.8352 27.8883
rtibia 41.4663
rfoot -25.0744 -7.06177
rtoes 2.65758
lfemur -5.55919 5.36729 -19.0646
ltibia 25.2592
lfoot -18.1808 11.5248
ltoes -5.16478
2477
root 20.0864 24.0894 20.1781 725.969 -70.3113 357.173
lowerback 4.54359 1.2344 -0.863611
upperback 1.43803 1.60943 1.9688
thorax -1.1497 0.792834 2.41835
lowerneck -12.5106 -2.76775 -9.73604
upperneck 39.6834 -5.16769 5.88135
head 16.9273 -3.26626 3.34871
rclavicle -5.90887e-014 -6.75868e-015
rhumerus -32.4451 -2.82197 -82.289
rradius 43.3034
rwrist -16.2637
rhand -22.0561 9.5103
rfingers 7.12502
rthumb 4.35457 -20.4249
lclavicle -5.90887e-014 -6.75868e-015
lhumerus -37.1183 4.80186 82.4337
lradius 24.4335
lwrist -1.69476
lhand -20.6489 18.3498
lfingers 7.12502
lthumb 5.71334 48.2528
rfemur -23.5972 -19.3468 27.7773
rtibia 41.1876
rfoot -24.7958 -6.16449
rtoes 4.9332
lfemur -5.26194 5.37001 -19.2948
ltibia 25.0339
lfoot -18.6177 11.9436
ltoes -5.17088
2478
root 20.0563 24.0841 20.1961 726.268 -71.1824 356.881
lowerback 4.44008 1.21098 -0.840046
upperback 1.45983 1.57857 1.98015
thorax -1.0677 0.776395 2.4209
lowerneck -12.5122 -2.80707 -9.17996
upperneck 39.6437 -5.2646 5.4969
head 16.8785 -3.27725 3.05147
rclavicle -4.56211e-014 -2.62396e-014
rhumerus -32.4939 -2.80664 -82.3107
rradius 43.3654
rwrist -16.3693
rhand -22.0325 9.66758
rfingers 7.12502
rthumb 4.37743 -20.2672
lclavicle -4.56211e-014 -2.62396e-014
lhumerus -37.024 4.60933 82.4948
lradius 24.4165
lwrist -1.51089
lhand -20.6897 18.3637
lfingers 7.12502
lthumb 5.67394 48.2677
rfemur -23.4556 -19.3704 27.7523
rtibia 40.85
rfoot -24.4044 -5.47324
rtoes 7.44222
lfemur -4.9978 5.09492 -19.3551
ltibia 25.035
lfoot -19.347 12.3801
ltoes -3.14194
2479
root 20.0437 24.0791 20.1845 726.898 -71.5475 356.492
lowerback 4.53297 1.10161 -0.917602
upperback 1.28503 1.43375 2.00686
thorax -1.29454 0.708022 2.49649
lowerneck -12.5381 -2.93455 -9.1206
upperneck 39.6897 -5.56073 5.61573
head 16.9471 -3.38315 3.04011
rclavicle 7.85199e-015 -1.51076e-014
rhumerus -32.5971 -3.29513 -82.284
rradius 43.3581
rwrist -16.3953
rhand -22.0333 9.43016
rfingers 7.12502
rthumb 4.37661 -20.5046
lclavicle 7.85199e-015 -1.51076e-014
lhumerus -36.9704 4.1866 82.5578
lradius 24.4509
lwrist -1.33326
lhand -20.8882 18.5135
lfingers 7.12502
lthumb 5.48229 48.4226
rfemur -23.6201 -19.0748 27.9891
rtibia 40.4757
rfoot -24.1464 -5.21076
rtoes 9.47261
lfemur -5.23133 5.99811 -19.0672
ltibia 25.0436
lfoot -19.4599 11.6255
ltoes -2.24175
2480
root 20.0186 24.0607 20.2022 727.138 -72.055 356.126
lowerback 4.67671 1.02387 -0.715058
upperback 1.29697 1.33836 2.0117
thorax -1.35325 0.659779 2.39077
lowerneck -12.5451 -2.97804 -9.4491
upperneck 39.7008 -5.7249 6.03645
head 17.0071 -3.45301 3.26091
rclavicle 3.66261e-014 -1.82882e-014
rhumerus -32.7619 -3.75774 -82.1161
rradius 43.3576
rwrist -16.1668
rhand -21.7553 9.48179
rfingers 7.12502
rthumb 4.64507 -20.4473
lclavicle 3.66261e-014 -1.82882e-014
lhumerus -36.9057 3.76848 82.7036
lradius 24.4973
lwrist -1.23746
lhand -20.9604 18.4786
lfingers 7.12502
lthumb 5.41258 48.3895
rfemur -23.3747 -19.0085 27.9139
rtibia 40.1142
rfoot -23.6297 -4.70529
rtoes 10.1058
lfemur -4.96517 5.9663 -19.1262
ltibia 25.0386
lfoot -19.3693 12.4116
ltoes -3.15035
2481
root 19.9915 24.052 20.2112 726.997 -72.5044 356.282
lowerback 4.69108 0.901638 -0.865234
upperback 1.30826 1.16879 2.0913
thorax -1.34625 0.574874 2.56738
lowerneck -12.5406 -2.93372 -9.71706
upperneck 39.5847 -5.67594 6.28209
head 16.9575 -3.44235 3.4265
rclavicle 5.46161e-014 -1.94809e-014
rhumerus -32.8955 -3.71822 -81.9701
rradius 43.4378
rwrist -16.3586
rhand -21.4834 10.0387
rfingers 7.12502
rthumb 4.90759 -19.8844
lclavicle 5.46161e-014 -1.94809e-014
lhumerus -36.7943 3.73787 82.8309
lradius 24.5835
lwrist -1.31899
lhand -21.0054 18.4721
lfingers 7.12502
lthumb 5.36911 48.3841
rfemur -23.2499 -19.0471 27.7795
rtibia 39.7307
rfoot -22.6865 -4.60375
rtoes 10.0926
lfemur -4.80284 6.1619 -19.2763
ltibia 24.9514
lfoot -18.9067 12.8755
ltoes -4.34397
2482
root 19.9618 24.0507 20.2161 727.012 -72.9957 356.413
lowerback 4.56156 0.742696 -1.03849
upperback 1.24149 0.951553 2.17249
thorax -1.33542 0.467417 2.76267
lowerneck -12.4575 -2.90418 -10.0364
upperneck 39.5661 -5.68957 6.57798
head 16.954 -3.46777 3.6159
rclavicle 3.64273e-014 -1.31198e-014
rhumerus -33.0989 -3.37134 -81.9936
rradius 43.5554
rwrist -17.1184
rhand -21.907 10.3746
rfingers 7.12502
rthumb 4.49859 -19.5576
lclavicle 3.64273e-014 -1.31198e-014
lhumerus -36.7603 4.01839 82.8015
lradius 24.6222
lwrist -1.49606
lhand -21.3414 18.6218
lfingers 7.12502
lthumb 5.04475 48.5417
rfemur -23.2407 -18.8253 27.6981
rtibia 39.4027
rfoot -21.6327 -4.65488
rtoes 10.5753
lfemur -4.72831 6.33858 -19.3532
ltibia 24.7774
lfoot -19.0027 12.8856
ltoes -2.51012
2483
root 19.927 24.0589 20.2206 727.317 -73.489 356.222
lowerback 4.33551 0.551216 -1.04301
upperback 1.19384 0.697953 2.24527
thorax -1.24473 0.34032 2.85639
lowerneck -12.3564 -2.87735 -10.4644
upperneck 39.6547 -5.73059 6.94989
head 17.0174 -3.51882 3.85914
rclavicle 2.11209e-014 -2.38542e-015
rhumerus -33.2438 -3.05771 -82.0575
rradius 43.548
rwrist -17.6636
rhand -22.5656 10.5543
rfingers 7.12502
rthumb 3.86255 -19.3905
lclavicle 2.11209e-014 -2.38542e-015
lhumerus -36.7291 4.34573 82.7645
lradius 24.5997
lwrist -1.75071
lhand -21.6211 18.747
lfingers 7.12502
lthumb 4.77462 48.6732
rfemur -23.1352 -18.6312 27.7095
rtibia 39.063
rfoot -20.6848 -4.37315
rtoes 11.5058
lfemur -4.54212 6.76365 -19.3079
ltibia 24.5426
lfoot -19.3404 12.9914
ltoes -2.8167
